<?xml version="1.0" encoding="utf-8"?>
<!-- Generator: Adobe Illustrator 24.3.0, SVG Export Plug-In . SVG Version: 6.00 Build 0)  -->
<svg version="1.1" id="圖層_1" xmlns="http://www.w3.org/2000/svg" xmlns:xlink="http://www.w3.org/1999/xlink" x="0px" y="0px"
	 viewBox="0 0 205 236" style="enable-background:new 0 0 205 236;" xml:space="preserve">
<style type="text/css">
	.st0{fill-rule:evenodd;clip-rule:evenodd;fill:#FFFFFF;}
</style>
<path class="st0" d="M147.3,16.3c-0.9,1.3-1.5,2.9-2.4,4.2c-0.3,0.5-0.9,0.9-1.2,1.4c-0.3,0.5-0.3,1.2-0.6,1.7
	c-0.4,0.7-1.1,1.2-1.5,1.8c-0.3,0.5-0.3,1.2-0.6,1.7c-0.2,0.2-0.5,0.5-0.7,0.7c-0.6,0.9-0.9,2-1.3,3.1c-0.3,0.7-0.6,1.4-1,1.9
	l-0.9,0.8c-0.4,0.7-0.2,2,0,2.7c0.2,0.1,0.3,0.2,0.4,0.2h3.2c1.2,0.3,4.1,1.3,5.3,0.6c1.6-0.5,1.4-3.1,1.4-5.2
	c0-1.5,0.2-3.4,0.5-4.7v-2.5c0.2-0.8,0.2-1.9,0.2-3c0-1.3-0.2-2.1-0.2-3.3c0-0.9,0.4-1.7-0.3-2.1C147.7,16.3,147.5,16.3,147.3,16.3
	 M155.2,0h3.8c0.1,0.1,0.1,0.2,0.2,0.3c0.3,0.1,0.7,0,1,0.1c0.1,0,0.3,0.2,0.4,0.2c0.5,0.1,1.2-0.1,1.6,0.1c0.5,0.3,1.6,1.8,1.8,2.4
	c0.5,1.6-1.1,2-1.6,2.7c-0.4,0.5-0.5,1.2-0.8,1.8c-0.7,1.3-1.3,2.4-1.8,4v1.1c0,0.3-0.2,0.5-0.2,0.7v1l-0.7,2.1V18
	c-0.1,0.5-0.3,1.6-0.4,2.1V21c-0.6,2.1-0.6,4.5-1.2,6.6c-0.3,1,0.2,2,0,3c-0.6,2.6-0.7,5.6-0.7,8.8c0.5,0.3,1,0.7,1.6,1
	c1,0.4,1.9,0.5,2.7,1.1c1.2,0.9,1.5,2.5,2,4.1c0.1,0.4,0.4,1.1,0.2,1.7c-0.2,0.8-0.8,1.8-1.5,2.3c-1.3,0.9-3.2,0.7-4.7,1.4
	c-0.6,0.2-0.8,0.8-1.3,1.2c0,1.5-0.1,3.4,0.2,4.5v1.5c0,1,0,2,0.2,2.7v1c0.2,0.6,0.5,1.2,0.7,1.8c0.7,2,1.2,3.9,2.3,5.5l1,1
	c1,1,1.9,1.9,3.1,2.7c0.6,0.4,1.3,0.6,1.9,0.9c2.1,1.1,6.6,1.9,9.6,0.9c0.5-0.2,1-0.1,1.3-0.4c1-0.7,1-3.8,0.6-5.2
	c-0.3-1.2-0.9-2.3-1.3-3.3c-0.1-0.4-0.2-0.9-0.4-1.3c-0.4-0.9-1.1-1.9-1.5-2.8c-0.2-0.5,0-1.1-0.2-1.5c-0.2-0.2-0.4-0.4-0.6-0.6
	c-0.6-0.8-1.3-2-1.3-3.2c0.1,0,0.1-0.1,0.3-0.1c0.4,0.5,1,0.7,1.5,1.1c0.3,0.3,0.5,0.6,0.8,0.9c1,0.7,2.1,1.5,3.1,2.1
	c0.4,0.3,1,0.3,1.4,0.6c0.1,0.1,0.2,0.3,0.3,0.4c0.4,0.4,1,0.9,1.4,1.2c1.3,1,2.8,1.7,4.1,2.7c0.2,0.2,0.3,0.4,0.5,0.6
	c0.3,0.2,0.7,0.3,0.9,0.6c0.2,0.2,0.2,0.5,0.4,0.7c0.3,0.1,0.7,0.2,1,0.4c0.3,0.3,0.7,0.7,1,1c0.3,0.1,0.6,0.1,0.9,0.2
	c0.4,0.2,0.8,1.1,1,1.5c0.3,0.4,0.8,0.8,1,1.3c0.4,0.7,0.6,1.4,1,2.1c0.1,0.1,0.2,0.2,0.4,0.4V76c0,2.7-2,4.6-3.6,5.7
	c-1.8,1.2-3.3,2-5.8,2.7h-1.3c-0.8,0.2-2,0.2-3,0.2h-1.6c-1.5,0.4-3.4,0.4-5.3,0.4h-2.2c-0.7-0.2-1.6-0.2-2.3-0.4
	c-1.2-0.4-2.5-1-3.8-1.4c-1-0.3-1.8-0.4-2.7-0.7c-2.2-0.9-3-2.8-4.4-4.6l-2.9-2.9c-0.5-0.7-0.7-1.7-1.2-2.5
	c-0.7-1.1-1.6-2.5-2.1-3.8c-0.2-0.6-0.1-1.2-0.4-1.8c-0.5-1.3-1.2-2.7-1.6-4.2v-0.9c-0.3-1.3-0.4-3.2-0.7-4.5v-3.6
	c0-0.1-0.2-0.4-0.2-0.5c-0.3-1.1,0.3-2.6-0.1-3.6c-0.7-1.6-2.6-2-4.2-2.7c-1-0.4-2.1-1.3-3-1.7c-0.6-0.1-1.2-0.2-1.8-0.4
	c-0.5-0.2-1.3-0.4-1.7-0.7c-0.2-0.3-0.5-0.6-0.7-1c-0.4-0.2-1.9-0.3-2.5-0.2c-1.3,0.3-2.3,1.1-2.7,2.2c-0.2,0.5-0.2,1-0.4,1.5
	c-0.1,0.3-0.4,0.6-0.5,0.9c-0.1,0.3-0.1,0.7-0.3,1c-0.3,0.4-0.7,0.6-1,1.1c-0.5,1.2-0.5,2.6-1,3.8c-0.5,1.3-1.2,2.6-1.8,3.9
	c-0.3,0.8-0.4,1.8-0.9,2.5c-0.4,0.7-1,1.3-1.4,2c-0.4,0.6-0.5,1.3-0.7,1.9c-0.1,0.3-0.4,0.6-0.5,1c-1.4,4.6-1.9,10.3-3.3,14.8
	c-0.1,0.5-0.2,0.9-0.3,1.3v1.7c0,0.1-0.2,0.4-0.2,0.5v2.1c-0.3,1-0.4,2.4-0.7,3.4l-0.1,1.2c-0.4,1.2-1.3,2.2-3,2.2
	c-0.3-0.8-1.4-0.7-2.1-1.1c-1.2-0.7-2.5-2-3.1-3.2c-0.3-0.7-0.2-1.4-0.4-2.2c-0.3-0.8-0.6-1.8-0.9-2.7c-0.9-2.3-2.4-4.6-3.6-6.5
	c-0.2-0.4-0.4-0.8-0.6-1.2c0-0.2-0.1-0.4-0.1-0.6c0-0.1-0.3-0.1-0.3-0.1V71c0.1-0.1,0.3-0.2,0.4-0.4l0.1-0.8c0.4-1.3,1-2.7,1.3-4.1
	c0.2-0.8,0.1-1.7,0.3-2.4c0.5-1.4,1.2-2.8,1.6-4.2v-1.1c0-0.8,0-1.4,0.2-2c1.4-4.9,2.9-9.7,4.2-14.6v-1.6c0.3-1.2,0.4-2.9,0.7-4.1
	c0.2-0.7,0-1.3,0.2-2c0.6-2.2,1-4.5,1.6-6.6c0.2-0.6,0.1-1,0.3-1.5c0.6-1.7,1.2-3.7,1.6-5.5v-2.7c0.1-0.4,0.3-0.8,0.4-1.2
	c0.2-0.8,0.2-1.7,0.4-2.4v-1.3c0.3-1.2,0.5-2.7,0.7-3.8c0.2-0.8-0.3-1.4-0.4-1.9c-0.2-0.7,0.3-2.2,0.4-2.7c0.3-1.2-0.2-2.4,0-3.3
	c0.9-0.6,1.3-0.1,2.1,0.1c0.3,0.1,0.5,0,0.7,0.1c0.5,0.3,0.9,0.8,1.4,1.2c1.5,1.1,3.4,2.2,4.1,4.1c0.1,0.4,0.2,1.5,0.1,2
	c-0.2,0.9-0.6,1.7-0.9,2.5c0,0.4-0.1,0.8-0.1,1.2c-0.3,1-0.8,2.2-1.1,3.4c-0.4,1.4-0.3,2.6-0.7,3.9c-0.2,0.8-0.6,1.6-0.7,2.4v1.3
	c-0.5,1.8-1.4,3.3-1.9,5.1v1.1c-0.1,0.5-0.4,0.9-0.5,1.4v2.3c-0.5,1.7-0.8,4-1.3,5.7c0,0.3-0.1,0.6-0.1,0.9
	c-0.4,1.3-0.9,2.9-1.3,4.2c0,0.4,0,0.8-0.1,1.2c0,0.1-0.2,0.4-0.2,0.5v0.8c-0.3,1.2-0.7,2.7-1.1,3.8c-0.4,1.3-0.6,2.6-1,3.8
	c-0.1,0.5,0.1,1.1-0.1,1.5c-0.1,0.4-0.4,0.8-0.6,1.1c-0.5,1.2-0.9,2.4-1.3,3.6c-0.2,0.6-0.6,3.1-0.1,3.3c0.6,0.3,1.2-0.5,1.5-0.9
	c0.2-0.2,0.4-0.4,0.6-0.6c0.6-1,0.9-2.1,1.6-2.9l0.8-0.7c0.4-0.5,0.5-1.1,0.8-1.7c0.1-0.2,0.4-0.4,0.5-0.7c0.4-0.6,0.5-1.1,0.9-1.7
	c0.9-1.4,1.8-2.8,2.6-4.3c0.4-0.9,0.5-1.8,1-2.7c0.7-1.1,1.5-2.3,2.2-3.4c0.2-0.4,0.5-0.9,0.7-1.3c0-0.3,0.1-0.6,0.1-0.9
	c0.2-0.5,0.8-1.2,1.3-1.5v-0.6c-0.6-0.5-2-1.4-2-2.4c0,0,0.1,0,0.1-0.1c2.1-0.3,5-1.5,6.1-2.9c0.3-0.4,0.4-1,0.7-1.4
	c0.4-0.7,1-1.4,1.5-2.1c0.2-0.3,0.2-0.7,0.4-1c1.9-3.1,3.5-6.6,5-10.1c0.3-0.7,0.8-1.4,1.1-2.1c0.7-1.4,1.2-2.8,2-4.1
	c0.4-0.7,0.9-1.4,1.3-2.1c0.1-0.2,0.2-0.5,0.2-0.7c0.4-0.8,1-1.7,1.3-2.7c0.1-0.5,0-1.1,0.2-1.4c0.5-0.7,1.6-1.3,2.4-1.6
	c0.5-0.2,1-0.2,1.4-0.4c0.2-0.2,0.3-0.5,0.4-0.7c0.5-0.7,1.7-1.7,2.4-2.1C153,1.1,154.8,0.7,155.2,0"/>
<path class="st0" d="M170.8,109.7c1.7,0,2.5,0.4,3.9,0.7c0.4,0.1,0.9,0.3,1.5,0.2c1.1-0.2,2.3-0.4,3.4-0.6c0.5-0.1,1.2,0.1,1.6,0.2
	c1.2,0.3,2.5,0.3,3.6,0.6c0.9,0.2,1.6,0.1,2.5,0.3c1.3,0.3,2.5,0.8,3.5,1.4c0.7,0.5,2.4,1.2,2.5,2.2c-0.2,0.3-0.6,0.7-0.7,1
	c-0.8,1.7-0.1,3.4-1.6,4.5c-1.5,1.1-3.1,2-5.6,2l-1.4-0.1c-0.6-0.2-1-0.8-1.6-1c-0.7-0.3-1.7-0.1-2.3-0.3c-0.8-0.5-1.5-0.9-2.3-1.4
	c-1.9-0.8-3.7-1.3-5.9-1.9c-1-0.3-2.1-0.3-3.1-0.5h-2.1c-0.7-0.2-1.5-0.3-2.2-0.3c-1.7,0-3.9,0-3.9-1.6c0.1-0.2,0.2-0.4,0.3-0.5
	c0.5-0.7,1.2-1.3,1.7-2c0.4-0.6,0.9-1.4,1.6-1.7c0.5-0.2,1.3,0,2-0.1c1.1-0.3,2.2-0.6,3.3-0.9C169.8,109.9,170.4,109.9,170.8,109.7
	L170.8,109.7z M100.1,136.4c2.1,0,3.6,1.4,4.9,2.3c2.6,2,4.4,4.6,6,7.7c0.6,1.1,1.3,2.3,1.6,3.7c0.2,0.9-0.4,1.5-0.2,2.4
	c0.2,1,0.5,3,0.1,4.1l-0.6,1.6c0,0.5-0.1,1-0.1,1.6c-0.2,0.7-0.5,1.5-0.7,2.4c0,0.5,0,1.1,0.1,1.6c0,1.2-0.2,2.7,0.1,3.7
	c0.2,0.8,0,1.5,0.3,2.2c0.2,0.8,0.7,1.5,1,2.2c0.3,0.8,0.3,1.6,0.7,2.2c0.4,0.7,2,1.6,2.9,1.8l1.8-0.1h1.9c0.6-0.1,1.3-0.1,1.8-0.4
	c0.6-0.3,1-1,1.8-1.3c1-0.3,1.9-0.3,2.9-0.6c1.2-0.4,2.5-1,3.7-1.4l2.4-0.5c0.6-0.2,0.8-1,1.4-1.2c0.6,0,1.3,0,1.9,0.1
	c0.6-0.2,0.9-0.7,1.4-0.9c0.5-0.1,1.1-0.2,1.6-0.3c1.2-0.5,2.3-1.5,3-2.6c0.2-0.4,0.4-1,0.2-1.6c-0.4-1.3-0.8-2.6-1.1-3.9
	c-0.3-1.2-0.2-2.6-0.5-3.8v-1.4c0-1,0-1.9-0.2-2.6v-3.1c-0.3-1.3-0.9-2.1-1.3-3.3c-0.2-0.8-0.2-1.8-0.2-2.8c0-1.7,1.3-2,2-3
	c0.6-0.8,0.9-2.1,1.2-3.3V135c-0.1-0.6-0.4-1.6-0.3-2.4c0.2-1.2-0.2-2.8,0.1-4c0.3-1.5,0.3-4.1,0-5.6c0-1,0-1.9-0.1-2.8
	c0-0.2-0.2-0.6-0.2-0.8v-1.6c-0.1-0.4-0.2-1-0.3-1.4v-2.2c-0.1-0.6-0.2-1.3-0.2-2v-3.3c0.1-0.5,0.5-2.6,0.3-3.3
	c-0.1-0.3-0.3-0.7-0.3-1V102c0-1.3,0.6-3.8,0.1-4.9c-0.3-0.8-1-1.2-1.8-1.4c-0.8-0.2-1.5,0.3-1.9-0.2c-0.2-0.3-0.2-0.9-0.1-1.3
	c0.3-1,0.7-1.9,1.2-2.7c0.7-1.3,1.6-2.2,2.6-3.3c0.3-0.3,0.7-0.7,1-1c0.8-0.5,1.6-0.9,2.4-1.4c0.2-0.2,0.3-0.3,0.5-0.5h3
	c0.3,0.5,0.9,0.7,1.4,1.1c0.8,0.6,1.7,1.5,2,2.6c0,0.5,0,1,0.1,1.5c0.4,1.9,0.3,4.5,0.3,6.8c0,4.7,0.1,9.4-0.7,13.1
	c-0.2,0.9,0,1.9-0.1,2.6c-0.1,0.6,0.2,1.2,0.3,1.6c0,0.6,0,1.3-0.1,1.9c0.2,1,0.1,2.2,0.3,3.1c0.2,1-0.1,2.1-0.3,2.8
	c-0.3,1.4,0.3,2.9,0,4.3c-0.2,0.8-0.3,1.7-0.5,2.4c-0.1,0.6-0.1,2.3,0.1,2.8c0.1,0.4,0.4,0.8,0.5,1.3c0.1,0.6-0.2,1.2-0.3,1.6
	c0,0.4,0,0.9-0.1,1.3c0,3.1,0.1,6.4-0.5,8.9c-0.3,1.5-0.1,3.6,0.2,4.8v2.9c0,2.6,0,5-0.5,7c-0.3,1.2,0.3,3.5,1,3.7
	c0.5,0.4,1.5,0,1.9-0.2c1.5-0.6,3.7-1,5-1.8c0.5-0.3,1.1-0.7,1.6-1c0.6-0.7,1.3-1.3,1.9-2c0.4-0.3,0.8-0.3,1.3-0.5
	c1-0.4,2-1.1,2.9-1.7c2.9-2,5.4-4.4,9.4-5.4c0.9-0.2,2.7,0.7,3.5,0.9h2.7c0.6,0.1,1.2,0.2,1.8,0.4c0.5,0.2,1.1,0.6,1.6,0.9
	c1.9,0.8,3.5,1.1,2.7,3.7c-1.5,0.8-3.1,1.5-4.5,2.4c-4.1,2.5-8,5.2-11.9,7.9c-0.5,0.3-1,0.5-1.6,0.9c-0.7,0.4-1.1,1.2-1.6,1.8
	c-0.2,0.2-0.5,0.4-0.7,0.6c-0.7,0.7-1.2,1.3-2,1.8c-0.5,0.4-1,1-1.8,1.1c0-0.1-0.1-0.3-0.1-0.4c0.5-0.5,0.8-1.1,1.2-1.6
	c0.6-0.5,1.1-1.1,1.7-1.6c0.7-0.9,1.4-1.6,2-2.5c0.6-0.9,0.9-2,1.6-2.9c0.2-0.3,0.6-0.5,1-0.7c0.9-0.7,2-2.7,1.8-4.2
	c-0.2-0.1-0.2-0.3-0.5-0.3c-0.3-0.2-1.2-0.2-1.6-0.1c-0.8,0.2-1.4,0.8-2,1.2c-0.4,0.2-0.8,0.3-1.2,0.5c-1.9,1-4.2,1.8-6.4,2.5
	c-1.6,0.5-3,0.7-4.5,1.4c-1.1,0.5-2.2,1.1-3.2,1.8c-0.4,0.3-0.9,0.5-1.3,0.9c-1.5,1.4-1.1,4.4-3.2,5.2c-0.5,0.2-1.3,0.1-1.8,0.1
	c-1.5,0-3.2,0.1-4.3-0.2c-0.6-0.1-1.3,0.1-1.7,0.2c-0.4,0-0.8,0-1.2,0.1c-0.8,0.2-1.9,0.5-2.7,0.8c-2.8,1.2-4.7,3.2-7,4.9
	c-1,0.8-2.1,1.8-3.3,2.3c-0.4,0.2-0.9,0.3-1.4,0.4c-0.6,0-1.1,0-1.7-0.1c-0.9,0.2-2.9,1.4-4,1.1c-5.4-1.3-9.8-4.6-11.8-9.2
	c-0.9-2-1.2-4.3-1.8-6.5c-0.5-1.9-0.4-4-0.8-5.9v-2.2c-0.2-0.8-0.6-1.3-0.7-2.2c-0.2-1.1,0.8-2.5,0.5-3.9c-0.2-0.9-0.7-1.5-1-2.4v-4
	c-0.2-0.7-0.1-1.6-0.3-2.3c-0.3-0.9-0.9-1.6-1.3-2.4c-0.1-0.5-0.3-0.9-0.4-1.4c-0.3-0.5-0.6-0.9-0.9-1.4c-0.1-0.1-0.6-0.4-0.7-0.5
	L100.1,136.4L100.1,136.4z M70.9,185.6c-0.9,1.2-2,2.4-3.4,2.7c-0.6,0-1.1,0.5-1.6,0.4c-0.4,0.1-1,0.4-1.3,0
	c-1.1-0.4-0.2-1.5-0.5-2.2c0.5-0.5,0-1.2,0.6-1.7c0.4-1.7,1.8-2.8,2.9-4.2c0.5-0.2,0.9,0,1.5,0c1,0.6,1.1,1.8,1.7,2.7
	C70.7,184.2,71.1,184.9,70.9,185.6 M96.5,178.8c0-0.5,0.5-0.2,0.5-0.6c-0.4-1.1-1.1-2-2-2.7c-0.2,0-0.5-0.4-0.9-0.1
	c-0.7-0.1-0.4-0.9-0.9-1.2c-1.1-0.2-1.8-0.9-3.1-0.9c-1-0.6-2.2-0.7-3.2-1.1c-1.8,0.4-3.9,0.7-5.8,0.9c-1.1,0.7-2.5,0.4-3.6,1.2
	c-1.1,0.4-2.8,0.2-3.8,1.2c-1.6,1.2-3.7,1.2-5.3,2.3c-1.5-0.2-2.2,0.9-3.7,0.5c-0.4-0.2-1.1-0.5-0.7-1.1c0.9-1.2,1.4-2.2,2.6-3.2
	c0.1-1,1.5-1,1.2-2.1h0.2c0.1-0.6,1-0.1,1.4-0.7c0.1-0.7,1.1-0.9,1.7-1.2c0.6-1,2.3-0.9,2.2-2.3c-0.2-1-1-1.3-1.6-2
	c-0.6-0.4-1.2,0.1-2,0c-1.6,1.7-3.7,2.3-5.5,3.3c-1-0.1-2.5,0.6-3-0.5c-0.1-1.3,0.6-2.8,1.5-3.9c0-1.1,1-1.5,1.4-2.3
	c0.9-0.5,0.5-1.4,1.5-1.8c1.2,0.1,2.3-0.6,3.3-1.3l0.2,0.1c0.9-0.5,1.1-1.6,1.4-2.5c-1-2.3-3.7-0.6-5.3-2.2c-0.4-0.4-0.4-1-0.4-1.5
	c0.2-0.9,1-1.7,1.8-1.8c0-1,1.1-1.1,1.7-1.6c0.7-0.1,1.1-1,2-1.2c1.5-1.7,4.1-2,5.3-4c0.5-0.4,0.7-1.1,1.5-1.3c0-0.4,0-0.6-0.1-1
	c-0.6-1.8-2.6-1.1-4-1.2c-1,0.9-1.8,1.5-2.5,2.5c-0.6,0.1-1.1,0.6-1.7,1.1c-0.7,0-1.1,0.7-2,0.7c-0.6,1-1.8,0.7-2.7,1.1
	c-1,0.7-2.1,0.9-3.3,1.1c-0.5-0.1-1.1-0.1-1.4-0.6c-0.1-1,0.5-1.7,0.1-2.7c0.2-0.7,0.7-1.6,0.5-2.2l0.5-0.5c0.1-1.6,1.5-2.6,1.6-4.3
	c0.6-0.6,0.9-1.2,1.1-2c0.7-0.7,1.1-2.1,2.1-2.7c0.4-0.7,0.9-1.4,1.2-2.1h-0.2c-0.4,0.9-1.1,1.4-1.6,2.1c-0.6,1.2-2.1,1.2-2.5,2.6
	c-1.5,0.9-1.2,2.6-2.3,3.7c0,1.3-1.4,2.1-1.4,3.2c-1.2,1.5-1.5,3.7-1.1,5.5c0.6,0.5,0,1.2,0.2,2c0.4,0.7,0.6,1.2,1.4,1.7
	c0.6,0.2,1.1-0.2,1.7,0.2c1.6,0,2.9-1.5,4.5-0.7c0.1,0.5-0.2,0.7-0.2,1.2c-0.9,1.1-1.7,2.2-1.1,3.7c0.6,1.1,2,1.5,2.5,2.7
	c-0.2,0.4-0.1,0.7-0.5,1c-1.3,0.4-1.3,2-2.6,2.6c0,0.5-0.1,1-0.5,1.2c-1.4,0.2-1.5,2.1-2.6,2.7c-0.1,1.3-0.9,2.6-1.7,3.6
	c0,1.2,0.2,2.2,0.9,3.2c0.9,1.2,2.1-0.1,3.2,0.1c0.6,0.1,0.5,0.9,0.6,1.2c-1,1.6-2.2,3.2-3.2,4.9c-0.1,1.6-1.7,2.5-2.6,3.8
	c-0.1,1.1-1.5,1.7-1.6,2.8c-0.1,1-1.5,1.3-1.5,2.3c-0.9,0.4-0.9,1.7-1.8,2.1c-0.6,1.6-2.2,2.8-2.3,4.4c-0.6,0.2-0.2,1-0.1,1.3
	c-0.4,1.1,0.6,1.6,1.1,2.3c0.4,0.2,0.7,0.6,1.2,0.6c0.6-0.4,1-1,1.5-1.5c0-1.1-0.1-1.8,0.4-2.6l-0.2-0.1c-0.1-0.2,0.1-0.5,0.4-0.5
	c0-0.7,0.6-1.1,0.9-1.6c0-1.1,0.7-1.6,0.9-2.6c0.9-0.5,0.5-1.5,1.1-2.2c0.5-0.5,0.7-1.6,1.7-1.6c1.4,0.9,0.4,2.9,0.5,4.2
	c0.4,0.6,0.5,1.3,1.1,1.7c0.4,0.2,0.9,0.1,1.1-0.1c1,0.2,2.1,0.6,2.8-0.2c2-0.2,3.8-0.7,5.4-1.8c1.1-0.1,1.8-1.3,2.3-2.2
	c0.6-0.5,0.4-1.1,0.7-1.7c-0.1-0.9,0.1-1.8-0.4-2.7c0.2-1.5-1.8-2.1-1.8-3.4c0.2-0.9,1.2-1.5,2.1-1.6c1.6-1.1,3.4-1.3,5.2-2
	c0.7-0.7,1.8-0.6,2.7-0.9c1.8,0.2,3.3-0.9,5.2-0.2c0.7,0.5,2.1,0.4,3.1,0.6c1.5,1.1,3.2,1.2,4.3,2.9v0.1c0.2,0.2,0.4,0.9,0.9,0.7
	c-0.4,0.5,0.1,1.2,0.1,1.8c0.5,0.7,0.4,2,0.4,2.8c-1.6,1.7-2.3,4.4-4.2,6.1c-1.4,0.9-1.7,2.7-3.3,3.1c-1.1,1.1-2.6,2.2-3.9,2.7
	c-0.4,0.2-0.9,0.4-0.7,0.7c-0.1-0.1-0.2,0-0.4-0.1c-0.9,0.7-2.3,0.6-2.7,1.7c0.1,0.1,0.4-0.1,0.5-0.1c0.5-1.1,2.1-0.1,2.6-1.4
	c1.5-0.1,2.6-1.2,3.8-1.7c0.9-1.1,2.5-0.6,3.2-1.8c0.7-0.2,0.9-1.2,1.6-1.1c1.5-1.2,3.2-2,4.3-3.7c0.1-1.6,1.6-2.4,1.5-4.2
	c0,0.1-0.2,0.1-0.2,0.1c-0.1,0-0.1-0.1-0.1-0.2c0.1-0.1,0.2,0,0.5,0c0.7-1.5,0.4-3.2,0.1-4.5C96.9,179,96.5,179.1,96.5,178.8
	 M98.5,160.5c-0.9-1.2-1.7-2.4-3.4-2.3c-1-1-2.5-0.9-3.7-0.6c0.2,0.6,1.1,0.7,1.2,1.3c0.6,0.5,1.1,1.1,1.2,2
	c-0.7,1.5-2.5,2.5-3.7,3.4c1.1-0.1,2-0.9,3.2-0.4c1.3-0.5,3.6,0,4.8-1.5C98.5,162,98.6,161.1,98.5,160.5"/>
<path class="st0" d="M40.1,107.5c-0.6,0.4-1.4,0.1-2.3,0.3c-1.3,0.3-2.9,0.5-4.3,1c-6.8,2-14.4,3.3-17.9,8.5
	c-0.7,1.1-1.9,2.1-2.3,3.5c-0.3,1,0.7,3.8,1.1,4.3c0.6,0.9,1.4,0.5,2.6,0.9c2.8,0.7,7.8,0.3,10.2-0.4c2.9-0.9,5.5-1.7,8.1-2.8
	c1-0.4,2.1-1.1,3.1-1.6c0.8-0.4,1.7-0.7,2.5-1.2c0.9-0.5,1.9-1.3,2.8-1.7c1.2-0.5,2.6-0.5,3.6-1.1c1.9-1.2,3.5-2.8,5.4-4
	c0.9-0.6,2.3-1,2.9-1.9c0.3-0.4,0.2-1.3,0.1-1.8c-0.2-0.2-0.4-0.4-0.6-0.6c-0.2-0.1-1.5-0.3-1.7-0.4h-2.7c-0.2,0-0.5-0.2-0.7-0.3
	h-1.9C45.6,107.7,42.8,107.6,40.1,107.5 M25,137.7v-0.3c-0.2-0.1-0.3-0.2-0.5-0.4H23c-0.5,0.7-1.2,0.7-2.5,0.7
	c-0.3-0.8-0.8-0.5-1.6-0.8c-1.1-0.3-2.6-0.8-3.7-1.2c-1.8-0.8-3.7-1.9-5.3-2.9c-0.8-0.5-1.9-0.8-2.4-1.5c-0.4-0.6-1.1-2-1.3-2.7
	c-0.1-0.3-0.2-0.6-0.3-1c-0.1-0.2-0.5-0.2-0.6-0.3v-3.3c0.8-0.2,0.7-0.9,1.2-1.4c1-1,2-1.9,3-2.9c0.2-0.3,0.3-0.6,0.5-0.9
	c1.2-1.3,2.5-2.5,3.9-3.5c0.5-0.6,1.1-1.2,1.6-1.7c0.2-0.2,0.5-0.1,0.7-0.3c0.7-0.4,1.3-1.2,1.9-1.6c0.4-0.3,0.9-0.3,1.3-0.6
	c0.5-0.3,0.9-0.7,1.4-1c0.5-0.2,1-0.2,1.4-0.5c0.7-0.4,0.6-1.1,1.1-1.7c0.2-0.4,1.1-1,1.5-1.2c1.3-0.5,2.5-0.4,3.7-1
	c0.7-0.3,1.2-0.9,2-1.1c1.1-0.3,2,0,3.1-0.3c1.5-0.4,3.5-0.6,4.9-1h1.8c1.8-0.5,4.4-0.4,6.2-0.9h2.3c1.9,0,4.2-0.1,5.7,0.3h1.7
	c0.1,0,0.4,0.2,0.6,0.3h1.4c0.9,0.3,3.1,1.2,4.3,0.9c2.2-0.6,4-2.9,5.3-4.6c0.3-0.3,0.7-0.6,1.1-1c0.9-1.3,1.9-2.3,3-3.4
	c0.5-0.4,0.9-0.8,1.3-1.2c1.3-1.9,2.3-3.9,3.4-5.9c0.5-1.1,1.2-2.2,1.7-3.3c0.2-0.4,0.3-0.9,0.6-1.3c0.9-1.4,1.9-2.3,2.4-4.1
	c0.2-0.7,0.6-3,0.3-3.9c-0.3-0.9-1.1-0.9-1.9-1.3c-2.4-1.2-4.2-1.8-7.3-0.7c-1.3,0.5-2.8,1.3-4.2,1.7c-1.5,0.4-3.2-0.3-4.5,0.2
	c-1,0.4-1.8,1.2-2.8,1.6c-2.4,1-4.9,1.3-7.2,2.3c-1.5,0.7-2.8,1.8-4.5,2.3h-2.7c-0.1,0-0.4,0.3-0.6,0.3h-2.4C43.4,81.8,43,82,43,82
	h-2c-3.3,0.8-9.2,0.5-11.5-0.8c-0.9-0.5-1.9-0.7-1.9-2.2c1.1-0.7,2.1-1.7,3.1-2.4c2.7-2,5.4-3.9,8.1-5.8l2.3-2.4
	c0.3-0.3,0.6-0.3,1-0.6c0.4-0.3,0.5-0.8,0.8-1.1c0.6-0.5,1.2-1.1,1.7-1.6c0.7-1.1,1.5-2.1,2.2-3.2c0.8-1.3,1.1-2.8,1.9-4
	c0.3-0.2,0.5-0.5,0.8-0.7c1.3-1.7,2.6-3.3,3.7-5.1l0.7-1.5c0.2-0.3,0.6-0.7,0.8-1.1c0.8-1.8,1.4-3.5,1.9-5.5v-1.2
	c0.1-0.4,0.3-1,0.4-1.4c0.4-1.6-0.7-2.9-0.4-4.1c0.2-0.6,0.4-1.2,0.6-1.7c0.2-0.4,0.8-0.5,1-1c0-0.4,0.1-0.8,0.1-1.2
	c0.2-0.5,2-2.5,2.5-2.6c0.3,0.8,1.1,0.7,1.9,1c1.6,0.6,3.2,1.2,4.6,1.9c1,0.5,2.9,1.8,3.5,2.6c0.8,1.2,2,3,3.2,3.8
	c1.8,1.3,4.7,2.2,5.1,4.8c0,0.3-0.7,3-0.9,3.5c0,0.4-0.1,0.8-0.1,1.2c-0.5,1.8-1.2,4-2.5,5c-0.6,0.4-1.2,0.5-1.9,0.8
	c-1.3,0.5-2.7,1.2-3.8,1.9c-2.2,1.5-3.9,3.5-5.4,5.7c-0.9,1.3-3.6,1.1-3.2,3.5c2.1,1,4.5,0.3,7,0.3c2.8,0,5-0.4,7.3-1h2.5
	c1.4-0.4,3.6-0.3,5.4-0.3c1.5,0,3.2,0,4.3,0.3c0.7,0.2,1.5-0.2,2,0.1c2.6,1.2,5.9,4.9,6.8,7.8c0.2,0.5,0.3,1.1,0.4,1.5v2.3
	c0.6,2.1,0.1,4.8-0.4,6.8c-0.3,1.1-0.1,2-0.5,3c-0.3,0.8-0.9,1.2-1.3,1.8c-0.6,0.8-1.1,1.8-1.6,2.6c-1.4,2.2-2.1,4.9-3.4,7.2
	c-0.7,1.4-1.4,2.9-2.3,4.2c-0.6,0.8-1.6,1.4-1.6,2.7c0.2,0.1,0.3,0.2,0.8,0.2c0.3-0.3,0.6-0.5,1.1-0.5c2.3,2.3,8.7,1.5,12.3,2.6
	c0.9,0.3,1.7,0.9,2.6,1.2h0.8c1.6,0.4,4,0.8,5.3,1.6c1.2,0.8,1.6,2.2,2.4,3.4l1.5,1.4c1.1,1.1,2.2,2.2,3.3,3.4
	c1.7,1.7,3.1,3.1,4.5,5c0.1,0.2,0.6,0.2,0.7,0.4v3c-0.8,0.3-0.7,1.1-1.2,1.7c-0.7,0.9-1.9,1.2-3.2,1.5c-1.3,0.3-4.8-0.1-5.7-0.3
	h-2.3c-1.8-0.4-4.2-0.6-6-1h-2.1c-1.7-0.4-4.4-0.3-6.5-0.3h-2.2c-2.6-0.5-5.6-0.4-8.1,0.3h-1.5c-1.2,0-2.4,0-3.4,0.2v-0.1h0.1
	c0.7-1,2.9-1.7,4-2.4c2-1.3,4.3-2.6,6.3-3.8c0.8-0.5,3.5-1.5,3.8-2.3c0.8-1.1-0.7-3.9-1.2-4.5c-2.1-3-4.2-4.6-9.2-4.6
	c-1.2,0-2,0-2.8,0.4c-3,1.3-5.1,3.3-7.6,5.1c-0.4,0.4-0.7,0.8-1.1,1.1c-0.5,0.3-1,0.5-1.5,0.9c-0.4,0.3-0.8,0.8-1.3,1.1
	c-0.7,0.4-1.8,0.6-2.4,1.2c-0.2,0.2-0.2,0.5-0.4,0.8c-0.8,0.8-1.7,1.7-2.5,2.5c-3.5,2.5-7.7,4.2-12.4,5.6c-2.6,0.8-5,1.1-7.6,1.8
	c-1,0.3-2,0.8-2.9,1.2c-0.6,0.2-1.1,0.3-1.7,0.5c-1.2,0.5-2.4,1.5-3.6,1.9c-1,0.4-2.3,0.1-3.3,0.4c-1.6,0.4-3,0.9-5,1
	C26.3,137.6,26,137.8,25,137.7 M21.1,220.8c1.8,1.7,3.1,3.9,3.8,6.1c-0.5,0.2-0.9,0.6-1.4,0.8c-0.7-2.4-1.8-4.6-3.8-6.3l1.3-0.7
	L21.1,220.8L21.1,220.8z M27.9,234.5c-1.3,0-2.1-0.9-2.1-1.9v-15.7h-6.7l0,10.2c0,3.5-2.4,6.5-5.2,8.6l-1.3-1.1
	c2.4-1.6,4.9-4.2,5-7.2l0-1.3l0-10.6h9.8V232c0,0.5,0.3,1.1,0.9,1.1l2,0c0.8,0,1-1,1.1-1.4c0.2-0.9,0.4-1.7,0.5-2.6l1.5,0.4
	c-0.1,1.3-0.8,5-2.4,5L27.9,234.5L27.9,234.5z M57.1,234.1H36.4l0-1.4h3.7l0-13h1.5v13h5.2l0-17.8h1.5v7.3h7v1.4h-7v9.1l8.7,0
	L57.1,234.1z M70.9,217.9c-0.9-1.3-2.1-2.5-3.5-3.2l1.1-0.9c0.5,0.2,1,0.6,1.4,0.9c0.8,0.6,1.6,1.6,2.2,2.3L70.9,217.9L70.9,217.9z
	 M66.6,219.6c0.1,0.8,0.4,1.8,0.6,2.6c0,0.1,0.1,0.2,0.1,0.2c0.5,1.4,1.1,2.7,1.9,4c0.5,0.7,1,1.4,1.6,1.9c2.2-2.4,3.4-5.5,4-8.7
	L66.6,219.6L66.6,219.6z M60.1,234.3c3.4-1.1,6.8-2.3,9.5-4.9c-2.6-2.7-3.9-6.3-4.6-9.9h-4l0-1.4h19.1v1.4l-3.9,0
	c-0.6,3.6-2,7.1-4.5,9.8c2.7,2.4,6.1,3.7,9.4,4.7l-1,1.2c-3.4-1.1-6.6-2.5-9.5-4.9c-0.6,0.4-1.2,1-1.8,1.4c-2.4,1.6-5,2.8-7.8,3.7
	L60.1,234.3z M104.4,233.7c-0.1,0.7-0.6,1.5-1.3,1.7c-0.8,0.1-1.6,0-2.4,0.1l-0.5-1.6c1,0.1,1.9,0.4,2.6-0.2
	c0.2-0.4,0.3-0.7,0.2-1.3V214h1.5L104.4,233.7L104.4,233.7z M99.4,230.9h1.5v-14.1h-1.5V230.9z M96.1,230.7l-5.7,0v2.2h5.7V230.7z
	 M96.1,235.6l0-1.4h-5.8v1.6h-1.5v-6.4h8.7v6.1H96.1L96.1,235.6z M95.5,225.4h-7v1.4l7,0V225.4z M88.5,222.8v1.3l7,0v-1.3
	L88.5,222.8L88.5,222.8z M88.5,228.1c-0.1,2.5-1,4.8-2.5,6.7l-1.2-0.8c0.3-0.4,1.1-1.7,1.2-1.9c1.2-2,1.1-3.9,1.1-6.1l0-4
	c-0.6,0.5-1.7,1.2-2.4,1.5l-0.6-1.3c2-1.1,3.7-2.9,5-4.8c0.8-1.1,1.4-2.3,1.9-3.6l1.3,0.6c0,0.2-0.1,0.4-0.2,0.6l0.1,0.1
	c2.6,0.7,4.8,2.2,6.6,4.2l-1.1,0.9c-2.7-2.8-3.4-2.8-6.2-3.8c-0.1,0-0.2,0.1-0.1,0.1c-0.5,0.7-0.9,1.5-1.5,2.3h5.7v1.4h-6.8
	c-0.2,0.2-1.3,1.3-1.4,1.3l9.6,0l0,6.6L88.5,228.1L88.5,228.1z M114.8,222.5v2.4l9.6,0v-2.4H114.8z M114.8,228.9h9.7v-2.6h-9.7
	V228.9z M117.2,213.9c-0.2,0.9-0.6,2.2-0.8,3.1H129v1.4l-13.2,0c-0.4,1.1-0.6,1.8-1.1,2.7H126v12.4c-0.1,0.6-0.5,1.1-1.1,1.3
	c-1,0.2-2.1,0.1-3.1,0.1c-0.2-0.5-0.5-1-0.7-1.5c0.9,0.1,1.9,0.1,2.8,0.1c0.4,0,0.5-0.1,0.6-0.5l0-2.7l-9.7,0v5.2h-1.6v-12.2
	c-1.2,1.7-2.9,3.5-4.4,5c-0.5-0.2-0.9-0.6-1.4-0.9c3-2.6,5.4-5.6,6.6-9l-5.3,0V217h5.8c0.4-1.1,0.7-2.3,1-3.4L117.2,213.9
	L117.2,213.9z M149.3,220.6l-7,0v3.1h7V220.6z M142.2,219.3l7.1,0v-2.9h-7.1L142.2,219.3L142.2,219.3z M142.2,233.1
	c1.2-0.6,2.5-1.1,3.8-1.6v1.5c-1.7,0.7-3.3,1.5-5,2.2c-0.4-0.3-0.9-0.6-1.3-1c0.7-0.4,1.1-1,1.1-1.8v-17.5h10.1v10.2h-4.2
	c0.1,1.4,0.2,2.4,1,3.9h0.1c1.2-1,2.5-2,3.6-3.2l1.1,1.1c-1.3,1.3-2.8,2.3-4.2,3.4c1,1.7,2.7,3.1,4.5,3.8c0,0-0.1,0.1-0.1,0.1
	c-0.3,0.4-0.5,0.8-0.8,1.1c-2.6-1-4.9-3.7-5.9-6.2c-0.5-1.4-0.7-2.5-0.9-4.1h-2.9L142.2,233.1L142.2,233.1z M132.8,214.9h6.6v1.5
	c-0.6,1.8-1.4,3.7-2.1,5.4c1.6,1.5,2.8,3.4,2.3,5.6c-0.2,1-1,2-2,2.3c-0.6,0.3-1.5,0.2-2.2,0.1l-0.4-1.6c0.8,0.1,1.8,0.5,2.5,0
	c0.7-0.5,0.8-1.5,0.6-2.3c-0.3-1.5-1.3-2.7-2.5-3.8c0.8-1.9,1.6-3.7,2.2-5.7h-3.5v19.2h-1.5L132.8,214.9L132.8,214.9z M162.9,215.2
	h7.6c0.9,3.6,2.5,7.3,6,9.3l-1.1,1.1c-0.8-0.4-1.6-1-2.2-1.7c-2-2.1-3.2-4.6-4-7.3h-6.4L162.9,215.2L162.9,215.2z M170.4,227
	c2.1,2,3.5,4.5,4.4,7.2c-0.5,0.3-1,0.5-1.5,0.7c-0.2-0.9-0.6-1.9-1-2.7l-4.8,0.8l-4.6,0.7c-0.9,0.1-1.8,0.4-2.7,0.6
	c-0.4-0.6-0.8-1.1-1.1-1.6c1.5-1.2,2.6-2.7,3.6-4.4c1.1-2,1.9-4.1,2.3-6.4c0.5,0.1,1,0.4,1.5,0.6c-0.2,1.4-0.7,2.7-1.2,4
	c-0.9,2.2-2.3,4.3-4.1,6l0.6,0l4.7-0.7c1.7-0.2,3.4-0.6,5.1-0.8c-0.7-1.2-1.6-2.3-2.6-3.2L170.4,227L170.4,227z M163.2,218.3
	c-0.7,2.4-2.4,4.5-4.3,6.3c-0.1,0-0.1,0.1-0.1,0.1l-1.1,0.9h-0.1l-1.1-1.1c1.5-1,2.8-2.3,3.9-3.8c0.7-1,1.3-2.1,1.6-3.3L163.2,218.3
	L163.2,218.3z M192,224.9h-6.9l0,4.1l6.9,0V224.9z M192,232.2v-1.7l-7,0v1.8h-1.6v-8.8h10.1l0,8.7H192L192,232.2z M199.5,233.6
	c0,0.7-0.5,1.4-1,1.7c-0.8,0.3-1.7,0.2-2.7,0.2h-0.9l-0.6-1.6c1,0.1,2,0.1,2.9,0.1c0.3,0,0.5-0.3,0.6-0.6v-17l-15.9,0v-1.5l17.5,0
	L199.5,233.6L199.5,233.6z M196.2,220.7h-15.5v-1.5l15.5,0L196.2,220.7L196.2,220.7z"/>
</svg>
